<?xml version="1.0" encoding="UTF-8" standalone="no"?>
<svg
   xmlns:dc="http://purl.org/dc/elements/1.1/"
   xmlns:cc="http://creativecommons.org/ns#"
   xmlns:rdf="http://www.w3.org/1999/02/22-rdf-syntax-ns#"
   xmlns:svg="http://www.w3.org/2000/svg"
   xmlns="http://www.w3.org/2000/svg"
   id="svg16"
   version="1.1"
   viewBox="0 0 138.5 138.5">
  <metadata
     id="metadata22">
    <rdf:RDF>
      <cc:Work
         rdf:about="">
        <dc:format>image/svg+xml</dc:format>
        <dc:type
           rdf:resource="http://purl.org/dc/dcmitype/StillImage" />
        <dc:title>icon-blue</dc:title>
      </cc:Work>
    </rdf:RDF>
  </metadata>
  <defs
     id="defs20" />
  <title
     id="title2">icon-blue</title>
  <path
     id="circle4"
     d="M 69.25 0 A 69.25 69.25 0 0 0 0 69.25 A 69.25 69.25 0 0 0 69.25 138.5 A 69.25 69.25 0 0 0 138.5 69.25 A 69.25 69.25 0 0 0 69.25 0 z M 122.58398 37.386719 A 1.85 1.85 0 0 1 124.14062 38.240234 L 124.14062 38.210938 A 1.85 1.85 0 0 1 124.25 40.070312 L 109.31055 69.939453 A 1.86 1.86 0 0 1 107.94922 70.939453 L 94.460938 73.289062 L 100.67969 74.849609 A 1.85 1.85 0 0 1 101.86914 75.769531 A 1.9 1.9 0 0 1 101.99023 77.279297 C 99.640238 83.929297 76.319219 104.58008 62.199219 104.58008 A 10.65 10.65 0 0 1 53.447266 100.6582 C 48.245822 108.49824 43.449148 116.96435 38.310547 126.05078 A 1.85 1.85 0 0 1 36.679688 127 L 36.679688 127.01953 A 1.87 1.87 0 0 1 35.060547 124.24023 C 51.380547 95.360238 64.280469 72.560234 97.480469 56.240234 A 1.87 1.87 0 0 1 97.732422 56.123047 A 1.8649464 1.8649464 0 0 0 95.859375 52.910156 C 74.269375 63.510156 61.089844 76.670078 50.089844 92.330078 C 47.229844 76.930078 60.959375 64.58 61.609375 64 A 1.86 1.86 0 0 1 64.509766 64.570312 L 65.759766 67.050781 C 66.469766 63.860781 67.520859 60.249375 68.880859 58.609375 C 71.220859 55.809375 82.210625 49.940547 84.390625 48.810547 A 1.83 1.83 0 0 1 86.570312 49.140625 L 88.480469 51.039062 L 91.050781 45.890625 A 2 2 0 0 1 92.050781 44.970703 C 92.830781 44.690703 111.12047 37.990625 122.48047 37.390625 A 1.85 1.85 0 0 1 122.58398 37.386719 z "
     style="fill:#f0f5fa;fill-opacity:0.60000002" />
  <path
     id="path6"
     style="fill:#fff;stroke:#fff;stroke-linecap:round;stroke-linejoin:round;stroke-width:0.97px"
     transform="translate(-374.17 -273.06)"
     d="M410.85,398.21" />
  <path
     id="path8"
     style="fill:#fff;stroke:#fff;stroke-linecap:round;stroke-linejoin:round;stroke-width:0.97px"
     transform="translate(-374.17 -273.06)"
     d="M410.85,398.21" />
  <path
     id="path12"
     style="fill:#fff;stroke:#fff;stroke-linecap:round;stroke-linejoin:round;stroke-width:0.97px"
     transform="translate(-374.17 -273.06)"
     d="M407.12,396.35" />
</svg>
