<svg xmlns="http://www.w3.org/2000/svg" viewBox="0 0 81.41 81.41" data-name="Layer 1"><path d="M40.699219 0a40.71 40.71 0 1 0 40.710937 40.699219A40.71 40.71 0 0 0 40.699219 0zm21.839843 17.470703a1 1 0 0 1 .861329.439453l-.041016-.019531a1 1 0 0 1 .060547 1l-7.720703 15.419922A1 1 0 0 1 55 34.839844L48 36l3.259766.800781a.92.92 0 0 1 .609375.478516.94.94 0 0 1 .060547.771484c-1.210001 3.44-13.248829 14.09961-20.548829 14.09961a5.52 5.52 0 0 1-4.480468-2c-2.69 4.05-5.170313 8.428906-7.820313 13.128906a1 1 0 0 1-.839844.480469.94.94 0 0 1-.480468-.128907 1 1 0 0 1-.359375-1.310547c6.67-11.799999 12.229531-21.629609 22.769531-29.349609l.230469-.169922c.45-.35.908906-.68 1.378906-1l.271484-.18164c1.08-.73 2.198672-1.438907 3.388672-2.128907l.441406-.259765 1.398438-.769531.470703-.25c.62-.35 1.250625-.68 1.890625-1a1 1 0 1 0-.851563-1.730469 59.27 59.27 0 0 0-23.689453 20.359375c-1.43-7.95 5.66-14.328906 6-14.628906a1 1 0 0 1 1.5.289062l.660157 1.259766a12.27 12.27 0 0 1 1.609375-4.34961c1.2-1.47 6.88-4.480312 8-5.070312A1 1 0 0 1 44 23.519531l1 1 1.300781-2.660156a1 1 0 0 1 .529297-.478516c.4-.14 9.848985-3.600156 15.708984-3.910156z" fill="#f0f5fa" fill-opacity=".60000002"/></svg>