<svg viewBox="0 0 64 64" xmlns="http://www.w3.org/2000/svg" xml:space="preserve" style="fill-rule:evenodd;clip-rule:evenodd;stroke-linejoin:round;stroke-miterlimit:2"><path style="fill:none" d="M0 0h64v64H0z"/><path d="M64 32c0 17.555-14.445 32-32 32S0 49.555 0 32C0 14.448 14.44.004 31.992 0c17.555 0 32 14.445 32 32H64zM49.848 14.074a.732.732 0 0 0-.677-.338c-4.599.251-12.037 2.956-12.351 3.074a.74.74 0 0 0-.417.369l-1.046 2.092-.786-.786a.785.785 0 0 0-.888-.134c-.881.464-5.347 2.83-6.29 3.978a9.68 9.68 0 0 0-1.258 3.452l-.504-1.007a.738.738 0 0 0-.534-.401.718.718 0 0 0-.645.173c-.267.228-5.842 5.245-4.678 11.495a46.623 46.623 0 0 1 18.579-16.008.787.787 0 1 1 .715 1.361c-.511.251-.998.503-1.486.786l-.369.196-1.101.614-.354.204a49.903 49.903 0 0 0-2.657 1.667l-.213.149c-.369.252-.731.504-1.085.787l-.188.133c-8.319 6.062-12.69 13.791-17.934 23.061a.79.79 0 0 0 .283 1.038.786.786 0 0 0 .377.094.788.788 0 0 0 .66-.385c2.084-3.696 4.034-7.132 6.149-10.324a4.329 4.329 0 0 0 3.522 1.573c5.74 0 15.206-8.389 16.157-11.086a.782.782 0 0 0-.047-.614.784.784 0 0 0-.479-.377l-2.532-.629 5.504-.92a.787.787 0 0 0 .55-.409l6.07-12.131a.789.789 0 0 0-.047-.787v.04z" style="fill:#057f99;fill-rule:nonzero"/></svg>