<svg id="Layer_1" data-name="Layer 1" xmlns="http://www.w3.org/2000/svg" xmlns:xlink="http://www.w3.org/1999/xlink" viewBox="0 0 238.59 46.29"><defs><linearGradient id="WCAG_compliant_Aqua" x1="220.41" y1="28.1" x2="206.08" y2="13.77" gradientUnits="userSpaceOnUse"><stop offset="0" stop-color="#3dbca6"/><stop offset="0.5" stop-color="#017f98"/><stop offset="1" stop-color="#006b81"/></linearGradient></defs><title>logo-gradient</title><path d="M238.43.44h0a1,1,0,0,0-.85-.44c-5.87.31-15.32,3.77-15.71,3.92a.91.91,0,0,0-.53.47L220,7.05l-1-1a.94.94,0,0,0-1.12-.17c-1.13.58-6.8,3.59-8,5.06a11.89,11.89,0,0,0-1.61,4.36L207.63,14a1,1,0,0,0-.67-.52.93.93,0,0,0-.82.22c-.35.3-7.43,6.68-6,14.63A59.34,59.34,0,0,1,223.82,8a1,1,0,0,1,1.29.45,1,1,0,0,1-.44,1.28h0c-.65.31-1.28.64-1.9,1l-.47.25c-.47.26-.94.51-1.4.78l-.44.25q-1.77,1-3.39,2.13l-.27.18c-.47.32-.93.65-1.38,1l-.23.17c-10.52,7.76-16.09,17.59-22.76,29.39a1,1,0,0,0,.37,1.31.9.9,0,0,0,.47.13h0a1,1,0,0,0,.84-.49c2.66-4.7,5.13-9.08,7.82-13.13a5.54,5.54,0,0,0,4.49,2c7.29,0,19.33-10.67,20.54-14.11a.94.94,0,0,0-.06-.77.92.92,0,0,0-.61-.48l-3.21-.81,7-1.16a1,1,0,0,0,.71-.52L238.49,1.4a1,1,0,0,0-.06-1" style="fill:url(#WCAG_compliant_Aqua)"/><path d="M0,21.92q0-6.12,3.16-9.6t9.07-3.47A12.77,12.77,0,0,1,18,10a6.91,6.91,0,0,1,3.24,3.09c.34.68.29,1.14-.16,1.4l-1.44.8q-.73.4-1.29-.66a6.46,6.46,0,0,0-2-2.07,6.74,6.74,0,0,0-3.91-1c-3,0-5.24.91-6.62,2.72s-2.07,4.36-2.07,7.62.69,5.81,2.07,7.63,3.58,2.72,6.62,2.72a6.94,6.94,0,0,0,4.19-1.16A8,8,0,0,0,18.9,28.7c.37-.68.81-.89,1.31-.62l1.51.83c.44.24.47.71.11,1.39a8.43,8.43,0,0,1-3.5,3.36A12.52,12.52,0,0,1,12.23,35q-5.91,0-9.07-3.48T0,21.92" style="fill:#017f98"/><path d="M24.65,35a.71.71,0,0,1-.82-.79V12.35a1.31,1.31,0,0,1,.18-.66l1.27-2.23c.23-.41.42-.61.57-.61h.64c.36,0,.54.2.54.61V34.22a.71.71,0,0,1-.82.79Z" style="fill:#017f98"/><path d="M33.73,29.92a3,3,0,0,0,.47,1.75,2.15,2.15,0,0,0,1.31.85,8.31,8.31,0,0,0,1.75.18,13.41,13.41,0,0,0,2.66-.26,6,6,0,0,0,2.58-1.39v-5.2a37.18,37.18,0,0,0-5.24.64,5.63,5.63,0,0,0-2.55,1.31,2.84,2.84,0,0,0-1,2.12m-3.32-.15a4.82,4.82,0,0,1,3-4.6c2-1,5-1.54,9-1.71v-1.2a5.25,5.25,0,0,0-.77-2.86c-.52-.8-1.54-1.2-3.07-1.2a8.13,8.13,0,0,0-2.33.27,6.77,6.77,0,0,0-1.59.72,7.26,7.26,0,0,0-1.38,1.15c-.32.36-.63.37-.93.06l-.94-1.06c-.27-.29-.18-.65.27-1.06A8.31,8.31,0,0,1,33.64,17a11,11,0,0,1,2.26-.75,12.82,12.82,0,0,1,2.76-.3q3.81,0,5.43,1.89A7.71,7.71,0,0,1,45.71,23V33.9a.72.72,0,0,1-.83.8H43.22c-.48,0-.72-.27-.72-.8V33a9.18,9.18,0,0,1-2.81,1.52,10.16,10.16,0,0,1-3.07.44A6.79,6.79,0,0,1,32,33.61a4.77,4.77,0,0,1-1.62-3.84" style="fill:#017f98"/><path d="M48.45,33c-.37-.34-.45-.66-.24-.95L49,30.91c.27-.35.67-.33,1.19.05a9.25,9.25,0,0,0,2.39,1.27,8.8,8.8,0,0,0,3,.48,6.11,6.11,0,0,0,1.79-.24,3,3,0,0,0,1.37-.89,2.46,2.46,0,0,0,.59-1.74,2.58,2.58,0,0,0-.28-1.2,2.17,2.17,0,0,0-.87-.91,6.64,6.64,0,0,0-1.16-.54,18.6,18.6,0,0,0-1.85-.56c-.61-.14-1.41-.37-2.41-.68a7.66,7.66,0,0,1-1.89-.85,5.41,5.41,0,0,1-1.56-1.5A4.53,4.53,0,0,1,48.69,21,4.35,4.35,0,0,1,49.76,18a5.32,5.32,0,0,1,2.7-1.68,11.36,11.36,0,0,1,3.15-.45,10.71,10.71,0,0,1,3.63.5,10.29,10.29,0,0,1,2.37,1.19c.39.27.45.58.17.93L61,19.59c-.26.34-.65.33-1.19,0a7.72,7.72,0,0,0-1.91-.86,6.69,6.69,0,0,0-4.13-.16,2.69,2.69,0,0,0-1.33.85,2.08,2.08,0,0,0-.51,1.4,2.88,2.88,0,0,0,.2,1.1,2.14,2.14,0,0,0,.75.89,4.21,4.21,0,0,0,1.53.66l2.79.7a14,14,0,0,1,2.29.77,7,7,0,0,1,2,1.32,4.15,4.15,0,0,1,1,1.56,6.06,6.06,0,0,1,.27,1.86,4.64,4.64,0,0,1-1.16,3.19A5.57,5.57,0,0,1,59,34.56a11.79,11.79,0,0,1-3.42.44A13,13,0,0,1,51,34.25,8.9,8.9,0,0,1,48.45,33" style="fill:#017f98"/><path d="M64,33c-.38-.34-.46-.66-.24-.95l.82-1.11c.27-.36.66-.34,1.19.05a9.25,9.25,0,0,0,2.39,1.27,8.76,8.76,0,0,0,3,.48,6.15,6.15,0,0,0,1.79-.24,3,3,0,0,0,1.37-.89,2.54,2.54,0,0,0,.59-1.75,2.64,2.64,0,0,0-.28-1.2,2.21,2.21,0,0,0-.87-.9,6.64,6.64,0,0,0-1.16-.54,16.28,16.28,0,0,0-1.85-.56c-.61-.15-1.41-.38-2.41-.68a8,8,0,0,1-1.89-.85,5.32,5.32,0,0,1-1.56-1.51A4.53,4.53,0,0,1,64.2,21,4.3,4.3,0,0,1,65.27,18,5.37,5.37,0,0,1,68,16.34a11.75,11.75,0,0,1,3.15-.45,11,11,0,0,1,3.64.5,11.39,11.39,0,0,1,2.37,1.19.58.58,0,0,1,.17.94l-.82,1.06c-.26.34-.65.32-1.19,0a7.53,7.53,0,0,0-1.91-.86,7.12,7.12,0,0,0-2.17-.41,6.62,6.62,0,0,0-2,.25,2.68,2.68,0,0,0-1.33.84,2.11,2.11,0,0,0-.51,1.41,3,3,0,0,0,.2,1.11,2.12,2.12,0,0,0,.75.89,4.39,4.39,0,0,0,1.53.65l2.79.7A13.35,13.35,0,0,1,75,24.9a6.92,6.92,0,0,1,2,1.32,4,4,0,0,1,1,1.56,6.06,6.06,0,0,1,.27,1.86,4.64,4.64,0,0,1-1.16,3.19,5.57,5.57,0,0,1-2.57,1.73,11.81,11.81,0,0,1-3.43.44,13,13,0,0,1-4.65-.75A8.9,8.9,0,0,1,64,33" style="fill:#017f98"/><path d="M81,35a.73.73,0,0,1-.82-.82V16.71a.73.73,0,0,1,.82-.82H82.6a.73.73,0,0,1,.82.82V34.19a.73.73,0,0,1-.82.82Zm0-22.58a.72.72,0,0,1-.82-.81V10.05A.73.73,0,0,1,81,9.23H82.6a.73.73,0,0,1,.82.82v1.57a.72.72,0,0,1-.82.81Z" style="fill:#017f98"/><path d="M85.87,25.45A10.76,10.76,0,0,1,88,18.61q2.13-2.7,6.49-2.7a8.26,8.26,0,0,1,4.51,1A7.51,7.51,0,0,1,101.24,19a.59.59,0,0,1-.17.93l-1.14.72c-.37.25-.73.09-1.1-.47a4.41,4.41,0,0,0-1.48-1.39,5.6,5.6,0,0,0-2.87-.58A4.59,4.59,0,0,0,90.62,20c-.91,1.19-1.36,3-1.36,5.48s.45,4.29,1.36,5.48a4.6,4.6,0,0,0,3.86,1.78,5.4,5.4,0,0,0,3.1-.75,5.08,5.08,0,0,0,1.56-1.63q.48-.82,1.08-.48l1.22.71c.36.21.42.53.16,1a10.34,10.34,0,0,1-2.07,2.12Q97.92,35,94.48,35c-2.91,0-5.07-.91-6.49-2.71a10.76,10.76,0,0,1-2.12-6.84" style="fill:#017f98"/><path d="M107.91,21.54H113q4,0,5.46-1.14A4.4,4.4,0,0,0,120,16.71,4.38,4.38,0,0,0,118.49,13Q117,11.89,113,11.89h-5.12ZM105.33,35c-.61,0-.91-.34-.91-1V9.9c0-.66.3-1,.91-1H113c4.12,0,6.91.7,8.35,2.09a7.55,7.55,0,0,1,2.17,5.72,7.56,7.56,0,0,1-2.17,5.73c-1.44,1.39-4.23,2.08-8.35,2.08h-5.07V34c0,.66-.3,1-.91,1Z" style="fill:#017f98"/><path d="M126.85,35a.72.72,0,0,1-.81-.82V16.71a.73.73,0,0,1,.82-.82h1.53a.73.73,0,0,1,.82.82V18.9a6.94,6.94,0,0,1,2.08-2.48,5.06,5.06,0,0,1,3-.84,4.9,4.9,0,0,1,1.66.2.42.42,0,0,1,.3.55l-.42,1.49c-.06.22-.21.31-.47.26a5.8,5.8,0,0,0-1.21-.13,4.21,4.21,0,0,0-3.53,1.92,8.76,8.76,0,0,0-1.39,5.24v9.08a.72.72,0,0,1-.81.82Z" style="fill:#017f98"/><path d="M139.78,24.3h10.29a8.65,8.65,0,0,0-1.31-4.47,4.06,4.06,0,0,0-3.64-1.92,5,5,0,0,0-3.59,1.41c-1,.95-1.56,2.6-1.75,5m-3.31,1.15a10.21,10.21,0,0,1,2.26-7,8.12,8.12,0,0,1,6.46-2.58,7.79,7.79,0,0,1,5.8,2.36c1.53,1.58,2.3,4.11,2.3,7.57,0,.53-.25.79-.75.79H139.78q.32,3.4,1.91,4.74a5.48,5.48,0,0,0,3.61,1.34,6.37,6.37,0,0,0,3.27-.69,6.22,6.22,0,0,0,1.66-1.36c.39-.49.77-.59,1.13-.28l1.08.9c.28.23.28.56,0,1a8.88,8.88,0,0,1-2,1.63A9.23,9.23,0,0,1,145.34,35c-3,0-5.27-.87-6.71-2.59a10.54,10.54,0,0,1-2.16-7" style="fill:#017f98"/><path d="M155.07,33c-.37-.34-.45-.66-.23-.95l.82-1.11c.26-.35.66-.33,1.18.05a9.42,9.42,0,0,0,2.39,1.27,8.82,8.82,0,0,0,3,.48,6.08,6.08,0,0,0,1.78-.24,3,3,0,0,0,1.37-.89,2.47,2.47,0,0,0,.6-1.74,2.59,2.59,0,0,0-.29-1.2,2.12,2.12,0,0,0-.87-.91,6.32,6.32,0,0,0-1.16-.54,18.42,18.42,0,0,0-1.84-.56c-.62-.14-1.42-.37-2.42-.68a8,8,0,0,1-1.89-.85A5.54,5.54,0,0,1,156,23.6a4.53,4.53,0,0,1-.66-2.62A4.35,4.35,0,0,1,156.38,18a5.32,5.32,0,0,1,2.7-1.68,11.36,11.36,0,0,1,3.15-.45,10.71,10.71,0,0,1,3.63.5,10.37,10.37,0,0,1,2.38,1.19.57.57,0,0,1,.16.93l-.82,1.06c-.25.34-.65.33-1.18,0a8.08,8.08,0,0,0-1.91-.86,7.17,7.17,0,0,0-2.17-.41,7,7,0,0,0-2,.25,2.74,2.74,0,0,0-1.33.85,2.08,2.08,0,0,0-.51,1.4,2.88,2.88,0,0,0,.2,1.1,2.21,2.21,0,0,0,.75.89,4.21,4.21,0,0,0,1.53.66l2.79.7a14,14,0,0,1,2.29.77,7,7,0,0,1,2.05,1.32,4,4,0,0,1,1,1.56,6.06,6.06,0,0,1,.27,1.86,4.63,4.63,0,0,1-1.15,3.19,5.55,5.55,0,0,1-2.58,1.73,11.79,11.79,0,0,1-3.42.44,12.88,12.88,0,0,1-4.65-.75A8.85,8.85,0,0,1,155.07,33" style="fill:#017f98"/><path d="M170.58,33c-.38-.34-.45-.66-.24-.95l.82-1.11c.27-.35.67-.33,1.19.05a9.25,9.25,0,0,0,2.39,1.27,8.76,8.76,0,0,0,3,.48,6.11,6.11,0,0,0,1.79-.24,3,3,0,0,0,1.37-.89,2.46,2.46,0,0,0,.59-1.74,2.58,2.58,0,0,0-.28-1.2,2.17,2.17,0,0,0-.87-.91,6.64,6.64,0,0,0-1.16-.54,18.6,18.6,0,0,0-1.85-.56c-.61-.14-1.41-.37-2.41-.68A7.66,7.66,0,0,1,173,25.1a5.29,5.29,0,0,1-1.56-1.5,4.53,4.53,0,0,1-.66-2.62A4.3,4.3,0,0,1,171.89,18a5.32,5.32,0,0,1,2.7-1.68,11.34,11.34,0,0,1,3.14-.45,10.74,10.74,0,0,1,3.64.5,10.29,10.29,0,0,1,2.37,1.19.57.57,0,0,1,.17.93l-.82,1.06c-.26.34-.65.33-1.19,0a7.72,7.72,0,0,0-1.91-.86,6.69,6.69,0,0,0-4.13-.16,2.69,2.69,0,0,0-1.33.85,2.08,2.08,0,0,0-.51,1.4,2.88,2.88,0,0,0,.2,1.1,2.06,2.06,0,0,0,.75.89,4.21,4.21,0,0,0,1.53.66l2.79.7a14.28,14.28,0,0,1,2.29.77,6.92,6.92,0,0,1,2,1.32,4.18,4.18,0,0,1,1,1.56,6.06,6.06,0,0,1,.27,1.86,4.64,4.64,0,0,1-1.16,3.19,5.57,5.57,0,0,1-2.57,1.73,11.81,11.81,0,0,1-3.43.44,13,13,0,0,1-4.65-.75,8.9,8.9,0,0,1-2.5-1.28" style="fill:#017f98"/></svg>