<svg id="Layer_1" data-name="Layer 1" xmlns="http://www.w3.org/2000/svg" xmlns:xlink="http://www.w3.org/1999/xlink" viewBox="0 0 81.41 81.41"><defs><linearGradient id="WCAG_compliant_Aqua" x1="45.37" y1="45.57" x2="31.04" y2="31.24" gradientUnits="userSpaceOnUse"><stop offset="0" stop-color="#3dbca6"/><stop offset="0.5" stop-color="#017f98"/><stop offset="1" stop-color="#006b81"/></linearGradient></defs><title>icon-white</title><path d="M81.41,40.7A40.71,40.71,0,1,1,40.7,0,40.71,40.71,0,0,1,81.41,40.7" style="fill:#fff"/><path d="M63.4,17.91h0a1,1,0,0,0-.86-.44c-5.86.31-15.31,3.77-15.71,3.91a1,1,0,0,0-.53.48L45,24.52l-1-1a1,1,0,0,0-1.13-.18c-1.12.59-6.8,3.6-8,5.07a12.27,12.27,0,0,0-1.61,4.35L32.6,31.5a1,1,0,0,0-1.5-.29c-.34.3-7.43,6.68-6,14.63A59.27,59.27,0,0,1,48.79,25.48a1,1,0,1,1,.85,1.73h0c-.64.32-1.27.65-1.89,1l-.47.25-1.4.77-.44.26c-1.19.69-2.31,1.4-3.39,2.13l-.27.18c-.47.32-.93.65-1.38,1l-.23.17C29.63,40.69,24.07,50.52,17.4,62.32a1,1,0,0,0,.36,1.31.94.94,0,0,0,.48.13h0a1,1,0,0,0,.84-.48c2.65-4.7,5.13-9.08,7.82-13.13a5.52,5.52,0,0,0,4.48,2c7.3,0,19.34-10.66,20.55-14.1a.94.94,0,0,0-.06-.77.92.92,0,0,0-.61-.48L48,36l7-1.16a1,1,0,0,0,.7-.53l7.72-15.42a1,1,0,0,0-.06-1" style="fill:url(#WCAG_compliant_Aqua)"/></svg>