<svg xmlns="http://www.w3.org/2000/svg" viewBox="0 0 138.5 138.5"><title>icon-white</title><circle cx="69.25" cy="69.25" r="69.25" style="fill:#fff"/><path d="M410.85,398.21" transform="translate(-374.17 -273.06)" style="fill:#158bcb;stroke:#fff;stroke-linecap:round;stroke-linejoin:round;stroke-width:0.97px"/><path d="M410.85,398.21" transform="translate(-374.17 -273.06)" style="fill:#158bcb;stroke:#fff;stroke-linecap:round;stroke-linejoin:round;stroke-width:0.97px"/><path d="M410.85,400.08a1.87,1.87,0,0,1-1.62-2.78c16.32-28.88,29.22-51.68,62.42-68a1.87,1.87,0,1,1,1.65,3.35c-32.17,15.79-44.81,38.15-60.82,66.46a1.85,1.85,0,0,1-1.63.95Z" transform="translate(-374.17 -273.06)" style="fill:#158bcb"/><path d="M407.12,396.35" transform="translate(-374.17 -273.06)" style="fill:#158bcb;stroke:#fff;stroke-linecap:round;stroke-linejoin:round;stroke-width:0.97px"/><path d="M498.31,311.3a1.85,1.85,0,0,0-1.66-.85c-11.36.6-29.65,7.3-30.43,7.58a2,2,0,0,0-1,.92l-2.57,5.15-1.91-1.9a1.83,1.83,0,0,0-2.18-.33c-2.18,1.13-13.17,7-15.51,9.8-1.36,1.64-2.41,5.25-3.12,8.44l-1.25-2.48a1.86,1.86,0,0,0-2.9-.57c-.65.58-14.38,12.93-11.52,28.33,11-15.66,24.18-28.82,45.77-39.42a1.86,1.86,0,1,1,1.64,3.35c-21.93,10.77-35,24.39-46,40.71.12.32.2.63.35,1a10.65,10.65,0,0,0,10.35,6.61c14.12,0,37.44-20.65,39.79-27.3a1.9,1.9,0,0,0-.12-1.51,1.85,1.85,0,0,0-1.19-.92l-6.22-1.56L482.12,344a1.86,1.86,0,0,0,1.36-1l14.94-29.87a1.85,1.85,0,0,0-.11-1.86Z" transform="translate(-374.17 -273.06)" style="fill:#158bcb"/></svg>