<svg id="Layer_1" data-name="Layer 1" xmlns="http://www.w3.org/2000/svg" xmlns:xlink="http://www.w3.org/1999/xlink" viewBox="0 0 81.41 81.41"><defs><linearGradient id="WCAG_compliant_Aqua" x1="69.79" y1="69.69" x2="12.23" y2="12.13" gradientUnits="userSpaceOnUse"><stop offset="0" stop-color="#3dbca6"/><stop offset="0.5" stop-color="#017f98"/><stop offset="1" stop-color="#006b81"/></linearGradient></defs><title>icon-gradient</title><path d="M81.71,40.91A40.7,40.7,0,1,1,41,.21a40.7,40.7,0,0,1,40.7,40.7" transform="translate(-0.31 -0.21)" style="fill:url(#WCAG_compliant_Aqua)"/><path d="M63.71,18.11h0a.93.93,0,0,0-.86-.43C57,18,47.54,21.44,47.14,21.59a.94.94,0,0,0-.53.47l-1.33,2.66-1-1a1,1,0,0,0-1.13-.17c-1.12.59-6.8,3.6-8,5.06A12.33,12.33,0,0,0,33.55,33l-.64-1.28a.94.94,0,0,0-.68-.51.91.91,0,0,0-.82.22c-.34.29-7.43,6.67-5.95,14.62A59.28,59.28,0,0,1,49.09,25.69,1,1,0,1,1,50,27.42h0c-.65.32-1.27.64-1.89,1l-.47.25-1.4.78-.45.26c-1.18.69-2.31,1.4-3.38,2.12l-.27.19c-.47.32-.93.64-1.38,1l-.24.17C29.94,40.9,24.38,50.73,17.71,62.52a1,1,0,0,0,.36,1.32,1,1,0,0,0,.48.12h0a1,1,0,0,0,.84-.49c2.65-4.7,5.13-9.07,7.82-13.13a5.5,5.5,0,0,0,4.48,2c7.3,0,19.34-10.67,20.55-14.1a1,1,0,0,0-.06-.78,1,1,0,0,0-.61-.48l-3.22-.8,7-1.17a1,1,0,0,0,.7-.52l7.72-15.43a1,1,0,0,0-.06-1" transform="translate(-0.31 -0.21)" style="fill:#fff"/></svg>