<?xml version="1.0" encoding="utf-8"?>
<!-- Generator: Adobe Illustrator 16.0.4, SVG Export Plug-In . SVG Version: 6.00 Build 0)  -->
<!DOCTYPE svg PUBLIC "-//W3C//DTD SVG 1.1//EN" "http://www.w3.org/Graphics/SVG/1.1/DTD/svg11.dtd">
<svg version="1.1" id="Layer_1" xmlns="http://www.w3.org/2000/svg" xmlns:xlink="http://www.w3.org/1999/xlink" x="0px" y="0px"
	 width="878.168px" height="641.893px" viewBox="0 0 878.168 641.893" enable-background="new 0 0 878.168 641.893"
	 xml:space="preserve">
<linearGradient id="SVGID_1_" gradientUnits="userSpaceOnUse" x1="604.1611" y1="485.5361" x2="282.1064" y2="163.4814">
	<stop  offset="0" style="stop-color:#40BDA7"/>
	<stop  offset="0.5" style="stop-color:#0B809A"/>
	<stop  offset="1" style="stop-color:#084A59"/>
</linearGradient>
<path opacity="0.5" fill="url(#SVGID_1_)" d="M874.566,3.663V3.641c-0.88-1.327,1.348,0.653-2.991-3.641
	c-9.111,0-39.447,0.352-75.653,0.352c-129.667,20.672-290.387,79.55-298.197,82.413c-5.285,1.933-9.506,5.797-12.016,10.782
	l-30.273,60.468l-22.319-22.311c-6.774-6.796-17.236-8.439-25.655-3.909c-25.564,13.348-154.695,81.823-182.169,115.15
	c-15.947,19.29-28.317,61.7-36.646,99.092l-14.637-29.119c-2.998-6.084-8.729-10.438-15.369-11.704
	c-6.753-1.411-13.616,0.521-18.681,5.041c-7.729,6.763-168.93,151.819-135.371,332.666
	c128.975-183.856,283.98-338.463,537.534-462.951c10.904-5.354,24.056-0.867,29.363,10.027c5.329,10.873,0.885,23.897-9.974,29.307
	c-0.022,0-0.046,0.022-0.066,0.022c-14.747,7.262-29.073,14.659-43.134,22.11c-3.573,1.889-7.085,3.798-10.616,5.708
	c-10.794,5.851-21.432,11.737-31.85,17.723c-3.398,1.932-6.774,3.843-10.129,5.797c-26.894,15.691-52.549,31.816-77.067,48.396
	c-2.022,1.367-3.999,2.777-6.044,4.164c-10.659,7.298-21.121,14.693-31.38,22.178c-1.799,1.287-3.577,2.609-5.375,3.931
	C227.375,432.732,56.579,641.892,56.579,641.892l387.45,0.001c0,0,156.473-142.945,169.657-180.275
	c2.042-5.841,1.577-12.26-1.355-17.67c-2.863-5.43-8.019-9.371-13.991-10.893l-73.095-18.312l159.135-26.519
	c6.931-1.155,12.859-5.498,15.993-11.849L875.835,25.496C879.341,18.533,878.877,10.192,874.566,3.663"/>
</svg>
