<?xml version="1.0" encoding="utf-8"?>
<!-- Generator: Adobe Illustrator 16.0.4, SVG Export Plug-In . SVG Version: 6.00 Build 0)  -->
<!DOCTYPE svg PUBLIC "-//W3C//DTD SVG 1.1//EN" "http://www.w3.org/Graphics/SVG/1.1/DTD/svg11.dtd">
<svg version="1.1" id="Layer_1" xmlns="http://www.w3.org/2000/svg" xmlns:xlink="http://www.w3.org/1999/xlink" x="0px" y="0px"
	 width="120px" height="120px" viewBox="0 0 120 120" enable-background="new 0 0 120 120" xml:space="preserve">
<linearGradient id="SVGID_1_" gradientUnits="userSpaceOnUse" x1="72.6865" y1="72.8232" x2="35.7222" y2="35.859">
	<stop  offset="0" style="stop-color:#3FBDA7"/>
	<stop  offset="0.5" style="stop-color:#077F99"/>
	<stop  offset="1" style="stop-color:#076B81"/>
</linearGradient>
<path fill="url(#SVGID_1_)" d="M119.195,1.459V1.457c-0.492-0.741-1.323-1.184-2.212-1.122c-15.134,0.792-39.506,9.72-40.532,10.097
	c-0.6,0.219-1.079,0.657-1.363,1.223l-3.434,6.859l-2.531-2.53c-0.769-0.771-1.955-0.958-2.911-0.444
	C63.312,17.053,48.665,24.82,45.549,28.6c-1.808,2.188-3.211,6.999-4.156,11.239l-1.66-3.302c-0.34-0.69-0.991-1.185-1.744-1.328
	c-0.766-0.16-1.544,0.059-2.118,0.571c-0.877,0.768-19.162,17.221-15.356,37.731c14.63-20.853,32.212-38.389,60.971-52.509
	c1.237-0.607,2.729-0.098,3.33,1.138c0.605,1.232,0.102,2.71-1.13,3.324c-0.003,0-0.006,0.002-0.009,0.002
	c-1.672,0.824-3.298,1.663-4.892,2.508c-0.404,0.214-0.804,0.431-1.205,0.647c-1.223,0.664-2.431,1.332-3.612,2.01
	c-0.386,0.22-0.769,0.436-1.148,0.658c-3.051,1.78-5.96,3.609-8.742,5.489c-0.229,0.156-0.453,0.316-0.685,0.473
	c-1.209,0.827-2.396,1.667-3.56,2.515c-0.205,0.146-0.405,0.296-0.61,0.446c-27.14,20.021-41.497,45.387-58.706,75.815
	c-0.676,1.193-0.25,2.71,0.942,3.389c0.388,0.218,0.809,0.321,1.225,0.321l0.003-0.003c0.866,0,1.705-0.453,2.164-1.265
	c6.852-12.118,13.244-23.41,20.184-33.866c2.746,3.394,6.674,5.175,11.563,5.175c18.811,0,49.877-27.518,53.005-36.376
	c0.231-0.663,0.18-1.391-0.154-2.004c-0.324-0.616-0.908-1.063-1.586-1.236l-8.291-2.077l18.05-3.008
	c0.787-0.131,1.458-0.623,1.814-1.343l19.901-39.799C119.737,3.146,119.684,2.2,119.195,1.459"/>
</svg>
