<svg id="Layer_1" data-name="Layer 1" xmlns="http://www.w3.org/2000/svg" viewBox="0 0 238.59 46.29"><title>logo-white</title><path d="M238.43.44h0a1,1,0,0,0-.85-.44c-5.87.31-15.32,3.77-15.71,3.92a.91.91,0,0,0-.53.47L220,7.05l-1-1a.94.94,0,0,0-1.12-.17c-1.13.58-6.81,3.59-8,5.06a12.07,12.07,0,0,0-1.61,4.36L207.63,14a1,1,0,0,0-.67-.52.93.93,0,0,0-.82.22c-.35.3-7.43,6.68-6,14.63A59.34,59.34,0,0,1,223.82,8a1,1,0,0,1,1.29.44,1,1,0,0,1-.44,1.29h0c-.65.32-1.28.65-1.9,1l-.47.25c-.47.25-.94.51-1.4.78l-.44.25q-1.77,1-3.39,2.13l-.27.18c-.47.32-.93.65-1.38,1l-.23.17c-10.52,7.76-16.09,17.6-22.76,29.39a1,1,0,0,0,.37,1.31.9.9,0,0,0,.47.13h0a1,1,0,0,0,.84-.49c2.66-4.7,5.13-9.08,7.82-13.13a5.51,5.51,0,0,0,4.49,2c7.29,0,19.33-10.67,20.54-14.11a.94.94,0,0,0-.06-.77,1,1,0,0,0-.61-.48l-3.21-.81,7-1.16a1,1,0,0,0,.71-.52L238.49,1.4a1,1,0,0,0-.06-1" style="fill:#fff"/><path d="M0,21.92q0-6.12,3.16-9.6t9.07-3.47A12.77,12.77,0,0,1,18,10a6.91,6.91,0,0,1,3.24,3.09c.34.67.29,1.14-.16,1.4l-1.44.8q-.73.4-1.29-.66a6.26,6.26,0,0,0-2-2.07,6.74,6.74,0,0,0-3.91-1q-4.56,0-6.62,2.72T3.73,21.92q0,4.91,2.07,7.62t6.62,2.73a6.94,6.94,0,0,0,4.19-1.16A8,8,0,0,0,18.9,28.7c.37-.68.81-.88,1.31-.62l1.51.83c.44.24.47.71.11,1.4a8.48,8.48,0,0,1-3.5,3.35A12.49,12.49,0,0,1,12.23,35q-5.91,0-9.07-3.48T0,21.92" style="fill:#fff"/><path d="M24.65,35c-.55,0-.82-.26-.82-.79V12.35a1.31,1.31,0,0,1,.18-.66l1.27-2.23c.23-.41.42-.61.57-.61h.64c.36,0,.54.2.54.61V34.22c0,.53-.27.79-.82.79Z" style="fill:#fff"/><path d="M33.73,29.92a3,3,0,0,0,.47,1.75,2.15,2.15,0,0,0,1.31.85,8.31,8.31,0,0,0,1.75.18,13.41,13.41,0,0,0,2.66-.26,6,6,0,0,0,2.58-1.39v-5.2a37.18,37.18,0,0,0-5.24.64,5.58,5.58,0,0,0-2.55,1.31,2.84,2.84,0,0,0-1,2.12m-3.32-.15a4.82,4.82,0,0,1,3-4.6c2-1,5-1.54,9-1.71v-1.2a5.25,5.25,0,0,0-.77-2.86c-.52-.8-1.54-1.2-3.07-1.2a8.13,8.13,0,0,0-2.33.27,6.77,6.77,0,0,0-1.59.72,6.91,6.91,0,0,0-1.38,1.15c-.32.36-.63.37-.92.06l-.95-1.06c-.27-.29-.18-.65.27-1.06A8.31,8.31,0,0,1,33.64,17a11,11,0,0,1,2.26-.75,12.82,12.82,0,0,1,2.76-.3c2.54,0,4.34.63,5.43,1.89A7.72,7.72,0,0,1,45.71,23V33.91c0,.52-.28.79-.83.79H43.22c-.48,0-.72-.27-.72-.79V33a9.33,9.33,0,0,1-2.81,1.53,10.49,10.49,0,0,1-3.07.43A6.79,6.79,0,0,1,32,33.61a4.77,4.77,0,0,1-1.62-3.84" style="fill:#fff"/><path d="M48.45,33c-.37-.34-.45-.66-.24-.95L49,30.91c.26-.35.66-.33,1.18.05a9.25,9.25,0,0,0,2.39,1.27,8.8,8.8,0,0,0,3,.48,6.11,6.11,0,0,0,1.79-.24,3,3,0,0,0,1.37-.89,2.46,2.46,0,0,0,.59-1.74,2.58,2.58,0,0,0-.28-1.2,2.17,2.17,0,0,0-.87-.91,6.64,6.64,0,0,0-1.16-.54,16.21,16.21,0,0,0-1.85-.55c-.61-.15-1.41-.38-2.41-.69a7.3,7.3,0,0,1-1.89-.85,5.41,5.41,0,0,1-1.56-1.5A4.53,4.53,0,0,1,48.69,21,4.35,4.35,0,0,1,49.76,18a5.4,5.4,0,0,1,2.7-1.69,12.14,12.14,0,0,1,3.15-.44,10.71,10.71,0,0,1,3.63.5,10.29,10.29,0,0,1,2.37,1.19c.39.27.45.58.17.93L61,19.59c-.26.34-.65.33-1.19,0a7.72,7.72,0,0,0-1.91-.86,6.69,6.69,0,0,0-4.13-.16,2.75,2.75,0,0,0-1.33.84,2.11,2.11,0,0,0-.51,1.41,2.92,2.92,0,0,0,.2,1.1,2.14,2.14,0,0,0,.75.89,4.38,4.38,0,0,0,1.53.66l2.79.7a13.06,13.06,0,0,1,2.29.78,6.78,6.78,0,0,1,2,1.32,4,4,0,0,1,1,1.55,6.06,6.06,0,0,1,.27,1.86,4.64,4.64,0,0,1-1.16,3.19A5.68,5.68,0,0,1,59,34.57a12.17,12.17,0,0,1-3.42.43A12.88,12.88,0,0,1,51,34.25,8.85,8.85,0,0,1,48.45,33" style="fill:#fff"/><path d="M64,33c-.38-.34-.46-.66-.24-.95l.82-1.11c.27-.35.66-.34,1.19.05a9.25,9.25,0,0,0,2.39,1.27,8.76,8.76,0,0,0,3,.48,6.15,6.15,0,0,0,1.79-.24,3,3,0,0,0,1.37-.89,2.54,2.54,0,0,0,.59-1.75,2.64,2.64,0,0,0-.28-1.2,2.21,2.21,0,0,0-.87-.9,6.64,6.64,0,0,0-1.16-.54,16.92,16.92,0,0,0-1.85-.56c-.61-.15-1.41-.37-2.41-.68a8,8,0,0,1-1.89-.85,5.32,5.32,0,0,1-1.56-1.51A4.53,4.53,0,0,1,64.2,21,4.3,4.3,0,0,1,65.27,18,5.37,5.37,0,0,1,68,16.34a11.75,11.75,0,0,1,3.15-.45,11,11,0,0,1,3.64.5,11.39,11.39,0,0,1,2.37,1.19.58.58,0,0,1,.17.94l-.83,1.06c-.25.34-.64.33-1.18,0a7.9,7.9,0,0,0-1.91-.86,7.17,7.17,0,0,0-2.17-.41,6.62,6.62,0,0,0-2,.25,2.75,2.75,0,0,0-1.33.84,2.11,2.11,0,0,0-.51,1.41,3,3,0,0,0,.2,1.11,2.12,2.12,0,0,0,.75.89,4.39,4.39,0,0,0,1.53.65l2.79.7A14.27,14.27,0,0,1,75,24.9a6.92,6.92,0,0,1,2,1.32,4,4,0,0,1,1,1.56,6.06,6.06,0,0,1,.27,1.86,4.64,4.64,0,0,1-1.16,3.19,5.57,5.57,0,0,1-2.57,1.73,11.81,11.81,0,0,1-3.43.44,12.91,12.91,0,0,1-4.65-.75A8.74,8.74,0,0,1,64,33" style="fill:#fff"/><path d="M81,35a.73.73,0,0,1-.82-.82V16.71a.73.73,0,0,1,.82-.82H82.6a.73.73,0,0,1,.82.82V34.19a.73.73,0,0,1-.82.82Zm0-22.58a.72.72,0,0,1-.82-.81V10.05A.73.73,0,0,1,81,9.23H82.6a.73.73,0,0,1,.82.82v1.57a.72.72,0,0,1-.82.81Z" style="fill:#fff"/><path d="M85.87,25.45A10.76,10.76,0,0,1,88,18.61q2.13-2.7,6.49-2.7a8.26,8.26,0,0,1,4.51,1A7.51,7.51,0,0,1,101.24,19a.59.59,0,0,1-.17.93l-1.14.72c-.37.25-.73.09-1.1-.47a4.41,4.41,0,0,0-1.48-1.39,5.59,5.59,0,0,0-2.87-.59A4.6,4.6,0,0,0,90.62,20c-.91,1.19-1.36,3-1.36,5.48s.45,4.29,1.36,5.48a4.6,4.6,0,0,0,3.86,1.78,5.4,5.4,0,0,0,3.1-.75,5.08,5.08,0,0,0,1.56-1.63q.48-.82,1.08-.48l1.22.71c.36.21.42.53.16,1a10.34,10.34,0,0,1-2.07,2.12Q97.92,35,94.48,35,90.11,35,88,32.29a10.76,10.76,0,0,1-2.12-6.84" style="fill:#fff"/><path d="M107.92,21.54H113q4,0,5.46-1.14A4.4,4.4,0,0,0,120,16.71,4.37,4.37,0,0,0,118.49,13Q117,11.89,113,11.89h-5.11ZM105.33,35c-.61,0-.91-.33-.91-1V9.9c0-.66.3-1,.91-1H113c4.12,0,6.91.7,8.35,2.09a7.54,7.54,0,0,1,2.17,5.72,7.56,7.56,0,0,1-2.17,5.73c-1.44,1.39-4.23,2.08-8.35,2.08h-5.06V34c0,.67-.31,1-.92,1Z" style="fill:#fff"/><path d="M126.85,35a.72.72,0,0,1-.81-.82V16.71a.73.73,0,0,1,.82-.82h1.53a.73.73,0,0,1,.82.82V18.9a6.94,6.94,0,0,1,2.08-2.48,5.06,5.06,0,0,1,3-.84,4.79,4.79,0,0,1,1.65.2c.28.11.39.29.31.55l-.41,1.49a.36.36,0,0,1-.48.26,5.8,5.8,0,0,0-1.21-.13,4.21,4.21,0,0,0-3.53,1.92,8.75,8.75,0,0,0-1.39,5.23v9.09a.72.72,0,0,1-.81.82Z" style="fill:#fff"/><path d="M139.79,24.3h10.28a8.59,8.59,0,0,0-1.31-4.47,4.06,4.06,0,0,0-3.64-1.92,5.06,5.06,0,0,0-3.59,1.41c-1,.94-1.56,2.61-1.74,5m-3.32,1.15a10.21,10.21,0,0,1,2.26-7,8.12,8.12,0,0,1,6.46-2.58,7.77,7.77,0,0,1,5.8,2.36q2.3,2.37,2.3,7.57c0,.53-.25.79-.75.79H139.79c.2,2.27.84,3.85,1.9,4.74a5.48,5.48,0,0,0,3.61,1.34,6.37,6.37,0,0,0,3.27-.69,6.22,6.22,0,0,0,1.66-1.36c.39-.49.77-.58,1.13-.28l1.08.9c.28.23.28.56,0,1a8.88,8.88,0,0,1-2,1.63A9.23,9.23,0,0,1,145.34,35c-3,0-5.27-.87-6.71-2.59a10.54,10.54,0,0,1-2.16-7" style="fill:#fff"/><path d="M155.07,33c-.37-.34-.45-.66-.23-.95l.82-1.11c.26-.35.66-.33,1.18.05a9.42,9.42,0,0,0,2.39,1.27,8.82,8.82,0,0,0,3,.48,6.08,6.08,0,0,0,1.78-.24,3.13,3.13,0,0,0,1.38-.89,2.51,2.51,0,0,0,.59-1.74,2.59,2.59,0,0,0-.29-1.2,2.12,2.12,0,0,0-.87-.91,6.32,6.32,0,0,0-1.16-.54,16.05,16.05,0,0,0-1.84-.55c-.62-.15-1.42-.38-2.42-.69a7.62,7.62,0,0,1-1.89-.85A5.54,5.54,0,0,1,156,23.6a4.53,4.53,0,0,1-.66-2.62A4.35,4.35,0,0,1,156.38,18a5.4,5.4,0,0,1,2.7-1.69,12.14,12.14,0,0,1,3.15-.44,10.71,10.71,0,0,1,3.63.5,10.37,10.37,0,0,1,2.38,1.19.57.57,0,0,1,.16.93l-.82,1.06c-.25.34-.65.33-1.18,0a8.08,8.08,0,0,0-1.91-.86,7.17,7.17,0,0,0-2.17-.41,7,7,0,0,0-2,.25,2.79,2.79,0,0,0-1.33.84,2.11,2.11,0,0,0-.51,1.41,2.92,2.92,0,0,0,.2,1.1,2.21,2.21,0,0,0,.75.89,4.47,4.47,0,0,0,1.53.66l2.8.7a13.23,13.23,0,0,1,2.28.78,6.66,6.66,0,0,1,2.05,1.32,3.93,3.93,0,0,1,1,1.55,6.06,6.06,0,0,1,.27,1.86,4.63,4.63,0,0,1-1.15,3.19,5.65,5.65,0,0,1-2.58,1.74,12.17,12.17,0,0,1-3.42.43,12.88,12.88,0,0,1-4.65-.75A8.85,8.85,0,0,1,155.07,33" style="fill:#fff"/><path d="M170.58,33c-.38-.34-.45-.66-.24-.95l.82-1.11c.27-.35.67-.33,1.19.05a9.25,9.25,0,0,0,2.39,1.27,8.76,8.76,0,0,0,3,.48,6.15,6.15,0,0,0,1.79-.24,3,3,0,0,0,1.37-.89,2.46,2.46,0,0,0,.59-1.74,2.58,2.58,0,0,0-.28-1.2,2.17,2.17,0,0,0-.87-.91,6.64,6.64,0,0,0-1.16-.54,16.21,16.21,0,0,0-1.85-.55c-.61-.15-1.41-.38-2.41-.69A7.3,7.3,0,0,1,173,25.1a5.29,5.29,0,0,1-1.56-1.5,4.53,4.53,0,0,1-.66-2.62A4.3,4.3,0,0,1,171.89,18a5.4,5.4,0,0,1,2.7-1.69,12.14,12.14,0,0,1,3.15-.44,10.71,10.71,0,0,1,3.63.5,10.29,10.29,0,0,1,2.37,1.19.57.57,0,0,1,.17.93l-.82,1.06c-.26.34-.65.33-1.19,0a7.72,7.72,0,0,0-1.91-.86,6.69,6.69,0,0,0-4.13-.16,2.75,2.75,0,0,0-1.33.84,2.11,2.11,0,0,0-.51,1.41,2.92,2.92,0,0,0,.2,1.1,2.06,2.06,0,0,0,.75.89,4.38,4.38,0,0,0,1.53.66l2.79.7a13.35,13.35,0,0,1,2.29.78,6.72,6.72,0,0,1,2,1.32,4.07,4.07,0,0,1,1,1.55,6.06,6.06,0,0,1,.27,1.86,4.64,4.64,0,0,1-1.16,3.19,5.68,5.68,0,0,1-2.57,1.74,12.17,12.17,0,0,1-3.42.43,13,13,0,0,1-4.66-.75,8.9,8.9,0,0,1-2.5-1.28" style="fill:#fff"/></svg>